<svg width="269" height="34" viewBox="0 0 269 34" fill="none" xmlns="http://www.w3.org/2000/svg">
<path fill-rule="evenodd" clip-rule="evenodd" d="M208.968 2.05495C174.447 -0.302782 151.519 -0.362317 105.586 1.7864C101.546 1.97522 95.2306 2.26773 91.5511 2.43645C61.2399 3.82494 18.7949 9.95196 7.01591 14.6392C4.5731 15.6112 0.181999 18.5065 0.16011 19.1597C0.156492 19.2677 0.362161 19.1147 1.17475 18.4046C4.921 15.1309 14.7583 12.7351 38.9021 9.21618C53.1638 7.1374 68.7278 5.48116 81.5288 4.68015C91.3002 4.06863 137.627 2.36953 139.177 2.56603C139.495 2.60625 137.726 2.74371 135.246 2.87142C108.602 4.24389 99.5221 4.94145 83.4164 6.85409C70.9372 8.33591 63.6042 9.57163 44.8446 13.3548C37.7868 14.7779 37.9912 14.7204 37.8596 15.3279C37.5263 16.867 38.4205 16.9751 44.2075 16.0954C83.4534 10.1309 106.804 8.70614 143.282 10.0501C153.097 10.4118 187.06 12.7902 186.454 13.0735C186.108 13.2353 175.859 13.5607 158.689 13.9546C120.274 14.8363 95.6208 17.6026 68.3629 24.09C60.805 25.8887 59.4378 26.5377 60.0418 28.0392C60.6798 29.6247 64.9564 29.5391 85.9186 27.5205C117.313 24.4971 128.951 23.9521 153.985 24.3328C159.804 24.4214 169.791 24.8431 169.501 24.9882C169.42 25.0286 163.096 25.5523 155.449 26.1517C136.314 27.6514 124.026 28.8937 123.583 29.3733C122.898 30.1126 123.05 31.2722 123.884 31.683C124.902 32.184 127.825 32.1952 134.569 31.7237C149.196 30.7012 163.779 30.679 185.31 31.6461C188.532 31.7908 192.285 31.9105 193.651 31.9123C196.827 31.9163 201.848 32.3286 204.164 32.7755C205.156 32.9668 206.389 33.2037 206.905 33.3019C208.861 33.674 202.098 31.7559 199.209 31.119C191.967 29.5231 182.491 28.5219 171.225 28.1625C168.641 28.0801 166.505 27.9782 166.479 27.9364C166.424 27.8483 169.052 27.6738 181.779 26.9208C191.537 26.3432 191.783 26.3026 192.191 25.1984C192.45 24.4979 192.244 23.6224 191.708 23.1442C191.301 22.7824 177.114 21.7231 169.401 21.4786C150.909 20.8927 141.099 20.8816 128.743 21.4319C116.24 21.9888 107.922 22.7208 87.1002 25.0965C74.4238 26.543 67.7529 27.1918 65.5271 27.1954L64.1475 27.1975L65.8339 26.7073C71.0358 25.1956 88.318 21.8839 98.1333 20.5181C118.522 17.6809 132.422 16.7517 163.553 16.1445C189.711 15.6345 195.076 15.2789 195.522 14.0262C196.003 12.6766 195.256 11.7901 193.125 11.1818C190.219 10.3523 154.097 7.54229 141.274 7.14814C128.701 6.7618 113.752 6.78383 105.84 7.20052C105 7.24481 104.085 7.25023 103.807 7.21265C101.761 6.93644 130.095 5.26891 146.293 4.71237C164.038 4.10276 178.061 4.06083 197.485 4.55931C210.045 4.88182 242.033 7.79971 254.959 9.80228C266.933 11.6573 267.363 11.7044 267.745 11.2054C268.143 10.6849 268.167 10.2767 267.832 9.7361C267.406 9.04801 264.892 8.49598 259.164 7.83218C257.055 7.5878 252.406 6.91722 248.831 6.34174C245.256 5.76647 240.836 5.07754 239.008 4.81075C235.559 4.30742 216.939 2.59937 208.968 2.05495ZM144.953 2.51812C144.853 2.56777 144.658 2.55532 144.518 2.4903C144.379 2.42528 144.461 2.3847 144.7 2.40007C144.939 2.41545 145.053 2.46848 144.953 2.51812ZM143.062 2.58437C142.883 2.61967 142.557 2.59423 142.338 2.52798C142.12 2.46151 142.267 2.43261 142.665 2.46357C143.063 2.49474 143.242 2.54908 143.062 2.58437ZM141.098 2.63701C140.878 2.66726 140.519 2.63789 140.302 2.57172C140.084 2.50555 140.265 2.48087 140.703 2.51678C141.141 2.55269 141.319 2.60676 141.098 2.63701ZM102.968 7.32018C102.787 7.3556 102.494 7.33155 102.317 7.26676C102.139 7.20176 102.287 7.17272 102.645 7.2021C103.004 7.23148 103.149 7.28455 102.968 7.32018ZM101.368 7.39087C101.267 7.44124 101.104 7.42788 101.006 7.36119C100.909 7.29472 100.992 7.25361 101.191 7.26993C101.39 7.28625 101.47 7.34072 101.368 7.39087ZM208.163 33.6666C208.261 33.7333 208.424 33.7467 208.525 33.6963C208.627 33.6461 208.547 33.5917 208.348 33.5754C208.149 33.559 208.066 33.6001 208.163 33.6666Z" fill="#B6B3FF"/>
</svg>
