<svg width="194" height="19" viewBox="0 0 194 19" fill="none" xmlns="http://www.w3.org/2000/svg">
<path fill-rule="evenodd" clip-rule="evenodd" d="M156.807 3.64635C130.909 1.59875 113.719 0.935872 79.299 0.657436C76.2718 0.632877 71.539 0.593235 68.7817 0.569356C46.0673 0.371979 14.2899 2.03114 5.49251 3.87376C3.66805 4.25587 0.396638 5.47399 0.384875 5.77568C0.38293 5.82556 0.536031 5.76042 1.14018 5.45436C3.92546 4.04328 11.2834 3.20718 29.359 2.24781C40.0362 1.68104 51.6927 1.34588 61.284 1.32992C68.6052 1.31769 103.324 1.8151 104.487 1.94898C104.726 1.9764 103.401 1.991 101.543 1.98137C81.5776 1.87821 74.7754 1.94941 62.7145 2.38821C53.3694 2.72813 47.8807 3.09677 33.8436 4.3276C28.5624 4.7906 28.7152 4.76962 28.6209 5.04711C28.382 5.75008 29.0531 5.8249 33.3854 5.5782C62.7656 3.90558 80.2611 3.89328 107.619 5.52601C114.98 5.96533 140.458 8.00703 140.006 8.12132C139.748 8.18663 132.066 8.05318 119.197 7.75971C90.4037 7.10328 71.9406 7.70027 51.5515 9.94702C45.8982 10.5699 44.8778 10.8324 45.3413 11.5439C45.8309 12.2953 49.0365 12.3742 64.7374 12.0209C88.2521 11.4917 96.9738 11.562 115.744 12.4319C120.108 12.6341 127.598 13.106 127.381 13.1651C127.32 13.1815 122.583 13.2487 116.854 13.3141C102.52 13.4779 93.3166 13.7123 92.9873 13.9219C92.4797 14.2451 92.6014 14.7859 93.2299 14.9991C93.9961 15.2591 96.1878 15.3453 101.241 15.314C112.199 15.2461 123.132 15.64 139.28 16.6841C141.697 16.8403 144.512 16.9997 145.535 17.0384C147.916 17.1282 151.684 17.4581 153.423 17.7291C154.168 17.8451 155.095 17.9889 155.482 18.0487C156.951 18.2751 151.867 17.2001 149.697 16.8253C144.256 15.8861 137.145 15.1602 128.696 14.6818C126.758 14.572 125.156 14.4657 125.136 14.4456C125.095 14.4034 127.063 14.3954 136.6 14.3996C143.911 14.4027 144.095 14.3907 144.393 13.8911C144.583 13.5741 144.422 13.1633 144.016 12.9271C143.709 12.7484 133.065 11.8651 127.281 11.5383C113.413 10.7547 106.059 10.4778 96.7992 10.39C87.4299 10.3013 81.1993 10.4095 65.6061 10.932C56.1128 11.25 51.1163 11.3655 49.4476 11.3054L48.4133 11.2682L49.6741 11.0881C53.5633 10.5327 66.4962 9.47907 73.845 9.11902C89.1104 8.37105 99.5245 8.32621 122.859 8.90787C142.466 9.39667 146.486 9.38077 146.811 8.81346C147.162 8.20223 146.596 7.77132 144.994 7.43079C142.809 6.96642 115.708 4.66516 106.092 4.12746C96.6635 3.60029 85.4566 3.19627 79.5281 3.16986C78.8986 3.16708 78.2126 3.14423 78.0037 3.11913C76.468 2.93463 97.6979 2.94808 109.838 3.13938C123.137 3.34897 133.65 3.71815 148.216 4.48705C157.634 4.9843 173.879 6.24491 183.584 7.52977C192.574 8.71998 192.897 8.7537 193.179 8.53335C193.474 8.30352 193.489 8.11531 193.234 7.85584C192.91 7.52562 191.022 7.20052 186.722 6.73461C185.14 6.5631 189.406 7.09997 186.722 6.73461C184.038 6.36935 180.719 5.92806 179.347 5.75395C176.757 5.42547 162.786 4.11913 156.807 3.64635ZM108.818 2.08687C108.743 2.10708 108.596 2.0959 108.492 2.06195C108.387 2.02801 108.448 2.0115 108.627 2.02524C108.807 2.03898 108.892 2.06667 108.818 2.08687ZM107.401 2.06514C107.266 2.07649 107.022 2.05569 106.857 2.01897C106.693 1.98216 106.803 1.97286 107.102 1.99823C107.401 2.02369 107.535 2.05379 107.401 2.06514ZM105.929 2.03507C105.763 2.04295 105.495 2.01943 105.331 1.98279C105.167 1.94614 105.303 1.93973 105.631 1.96848C105.96 1.99724 106.094 2.02719 105.929 2.03507ZM77.3758 3.14566C77.2405 3.15704 77.0204 3.13778 76.8869 3.10288C76.7534 3.06788 76.8641 3.05854 77.133 3.08207C77.4019 3.1056 77.5111 3.13418 77.3758 3.14566ZM76.177 3.13404C76.1013 3.15454 75.9791 3.14384 75.9054 3.11027C75.8318 3.07681 75.8937 3.06009 76.0431 3.07316C76.1925 3.08623 76.2528 3.11365 76.177 3.13404ZM156.428 18.2523C156.502 18.2859 156.624 18.2966 156.7 18.2761C156.775 18.2557 156.715 18.2283 156.566 18.2152C156.416 18.2021 156.354 18.2189 156.428 18.2523Z" fill="#B6B3FF"/>
</svg>
