<svg width="102" height="49" viewBox="0 0 102 49" fill="none" xmlns="http://www.w3.org/2000/svg">
<g clip-path="url(#clip0_7473_1891)">
<path d="M0.853516 6.42858C1.06481 8.2049 0.959161 9.98122 1.38174 11.6531C2.01561 14.0563 2.86078 16.4596 4.12852 18.6539C11.8406 32.2375 23.039 42.2685 38.1463 46.4481C53.5705 50.6277 68.1495 47.284 80.2987 36.4171C86.4262 30.9836 91.0746 24.4008 94.6665 17.0865C95.3004 15.7281 95.9342 14.4743 97.0963 12.28C98.4697 15.3102 99.5262 17.609 100.583 20.0122C100.9 19.9077 101.216 19.9077 101.639 19.8032C101.745 19.0718 102.062 18.3404 101.956 17.609C101.639 13.9518 101.216 10.2947 100.794 6.63755C100.477 4.23429 100.266 1.72654 97.6245 0.681648C94.8778 -0.467739 92.5536 1.0996 90.7576 2.87592C88.3278 5.38367 86.1092 8.20489 83.9963 11.0261C83.5737 11.653 83.9963 12.8024 83.9963 13.7428C84.9471 13.7428 86.1092 14.0563 86.7431 13.6384C88.6447 12.28 90.2294 10.6082 92.0254 8.93632C92.131 9.24979 92.3423 9.45877 92.2366 9.56326C83.9963 32.551 67.0931 46.2391 43.006 43.8358C41.8439 43.7314 40.6818 43.5224 39.5197 43.1044C23.3559 37.9844 11.418 28.0579 4.12852 12.8024C3.17771 10.8171 2.75513 8.51836 2.12126 6.32408C1.69868 6.32408 1.2761 6.42858 0.853516 6.42858Z" fill="black"/>
</g>
<defs>
<clipPath id="clip0_7473_1891">
<rect width="101.124" height="47.9007" fill="white" transform="matrix(1 0 0 -1 0.853516 48.1896)"/>
</clipPath>
</defs>
</svg>
