<?xml version="1.0" encoding="UTF-8"?> <svg xmlns="http://www.w3.org/2000/svg" width="20" height="20" viewBox="0 0 20 20" fill="none"><path fill-rule="evenodd" clip-rule="evenodd" d="M5.00033 2.5C3.15938 2.5 1.66699 3.99238 1.66699 5.83333V14.1667C1.66699 16.0076 3.15938 17.5 5.00033 17.5H15.0003C16.8413 17.5 18.3337 16.0076 18.3337 14.1667V5.83333C18.3337 3.99238 16.8413 2.5 15.0003 2.5H5.00033ZM5.34702 6.1466C5.05981 5.95513 4.67177 6.03274 4.4803 6.31994C4.28883 6.60715 4.36644 6.99519 4.65364 7.18666L7.80464 9.28733C9.13424 10.1737 10.8664 10.1737 12.196 9.28733L15.347 7.18666C15.6342 6.99519 15.7118 6.60715 15.5204 6.31994C15.3289 6.03274 14.9408 5.95513 14.6536 6.1466L11.5026 8.24727C10.5929 8.85375 9.40774 8.85375 8.49802 8.24727L5.34702 6.1466Z" fill="#6A8DFF"></path></svg> 