<svg width="136" height="44" viewBox="0 0 136 44" fill="none" xmlns="http://www.w3.org/2000/svg">
<g clip-path="url(#clip0_8122_32122)">
<path d="M135.456 35.9878C135.151 34.4624 135.266 32.9303 134.682 31.4994C133.808 29.4431 132.654 27.3912 130.941 25.5284C120.521 13.9936 105.524 5.59282 85.422 2.31497C64.8994 -0.956132 45.6022 2.23427 29.6329 11.8524C21.5782 16.6626 15.5018 22.4313 10.8372 28.8073C10.0149 29.9907 9.19125 31.0842 7.67973 32.9988C5.81561 30.4182 4.38212 28.4609 2.94718 26.4135C2.52811 26.5103 2.1076 26.5171 1.54837 26.6161C1.41831 27.2483 1.00792 27.885 1.1582 28.5127C1.62929 31.6557 2.24056 34.7964 2.85182 37.9372C3.30557 40.0003 3.62059 42.1556 7.13929 42.9993C10.7996 43.9307 13.8617 42.5313 16.22 40.9631C19.4092 38.7515 22.3138 36.2744 25.0781 33.7996C25.6302 33.2506 25.0536 32.2697 25.0406 31.4598C23.779 31.48 22.2328 31.2348 21.3976 31.6083C18.8933 32.8187 16.8139 34.2924 14.4541 35.7705C14.3096 35.5028 14.0264 35.3273 14.1651 35.2351C24.7804 15.261 47.0183 3.1117 79.0103 4.66834C80.5536 4.73358 82.0984 4.8888 83.6461 5.22401C105.163 9.2893 121.139 17.5843 131.022 30.568C132.311 32.2576 132.904 34.2285 133.775 36.1048C134.336 36.0958 134.895 35.9968 135.456 35.9878Z" fill="black"/>
</g>
<defs>
<clipPath id="clip0_8122_32122">
<rect width="134.188" height="41.2606" fill="white" transform="matrix(-0.999871 0.0160563 0.0160563 0.999871 134.878 0.0205078)"/>
</clipPath>
</defs>
</svg>
