<?xml version="1.0" encoding="UTF-8"?> <svg xmlns="http://www.w3.org/2000/svg" width="20" height="20" viewBox="0 0 20 20" fill="none"><path fill-rule="evenodd" clip-rule="evenodd" d="M10.0003 18.3334C14.6027 18.3334 18.3337 14.6025 18.3337 10.0001C18.3337 5.39771 14.6027 1.66675 10.0003 1.66675C5.39795 1.66675 1.66699 5.39771 1.66699 10.0001C1.66699 14.6025 5.39795 18.3334 10.0003 18.3334ZM10.6253 5.83341C10.6253 5.48824 10.3455 5.20841 10.0003 5.20841C9.65515 5.20841 9.37533 5.48824 9.37533 5.83341V10.0001C9.37533 10.2691 9.54747 10.5079 9.80268 10.593L12.3027 11.4263C12.6301 11.5355 12.9841 11.3585 13.0933 11.0311C13.2024 10.7036 13.0254 10.3496 12.698 10.2405L10.6253 9.54961V5.83341Z" fill="#6A8DFF"></path></svg> 