<?xml version="1.0" encoding="UTF-8"?> <svg xmlns="http://www.w3.org/2000/svg" width="92" height="41" viewBox="0 0 92 41" fill="none"><rect x="33.7856" y="0.28125" width="58.5446" height="22.1784" rx="5" transform="rotate(6.11208 33.7856 0.28125)" fill="url(#paint0_linear_27_529)"></rect><path d="M45.6761 9.62996L46.8006 9.75038L46.1086 16.2134L44.984 16.093L45.103 14.9814C44.4515 15.7745 43.5915 16.1139 42.523 15.9994C41.6181 15.9026 40.8819 15.4925 40.3144 14.7693C39.7478 14.0375 39.5152 13.1976 39.6167 12.2497C39.7182 11.3018 40.1229 10.5345 40.8307 9.94786C41.5394 9.3526 42.3462 9.10342 43.251 9.20031C44.3196 9.31474 45.0883 9.8285 45.557 10.7416L45.6761 9.62996ZM42.7814 14.9289C43.4363 14.999 44.0071 14.8379 44.4936 14.4454C44.9811 14.0444 45.2599 13.5164 45.33 12.8615C45.4002 12.2066 45.239 11.6358 44.8466 11.1493C44.4551 10.6541 43.9319 10.3715 43.277 10.3013C42.6306 10.2321 42.0638 10.398 41.5763 10.7991C41.0897 11.1915 40.8114 11.7152 40.7413 12.3701C40.6711 13.025 40.8318 13.6001 41.2233 14.0952C41.6158 14.5818 42.1351 14.8597 42.7814 14.9289ZM53.8688 10.5073L54.9804 10.6263L54.3174 16.8179C54.215 17.7744 53.8125 18.4809 53.1099 18.9374C52.4064 19.4024 51.6022 19.5865 50.6974 19.4896C49.9735 19.4121 49.3635 19.2074 48.8674 18.8753C48.3703 18.5519 48.0155 18.1216 47.8028 17.5846L48.8447 17.134C49.1205 17.8957 49.784 18.3328 50.8354 18.4454C51.5075 18.5174 52.0521 18.397 52.4691 18.0843C52.8947 17.7725 53.1403 17.3107 53.2058 16.6989L53.3041 15.7811C52.643 16.5819 51.7869 16.9261 50.7355 16.8135C49.8135 16.7148 49.0687 16.3038 48.5011 15.5806C47.9336 14.8574 47.7001 14.0261 47.8006 13.0868C47.9012 12.1475 48.305 11.3889 49.0119 10.8108C49.7197 10.2242 50.5346 9.98026 51.4567 10.079C52.5166 10.1925 53.281 10.7058 53.7498 11.6189L53.8688 10.5073ZM49.4087 14.9194C49.8011 15.406 50.3248 15.6843 50.9797 15.7545C51.6346 15.8246 52.2053 15.6635 52.6919 15.271C53.1784 14.8786 53.4568 14.3549 53.5269 13.7C53.5961 13.0537 53.4345 12.4873 53.0421 12.0007C52.6497 11.5142 52.126 11.2358 51.4711 11.1657C50.8161 11.0956 50.2454 11.2567 49.7589 11.6491C49.2723 12.0416 48.9944 12.5609 48.9252 13.2072C48.8551 13.8622 49.0162 14.4329 49.4087 14.9194ZM57.0714 14.6417C57.1216 15.2311 57.3364 15.7074 57.7159 16.0705C58.104 16.4346 58.604 16.6493 59.2158 16.7149C60.0689 16.8062 60.7231 16.5581 61.1782 15.9706L62.0766 16.6159C61.3433 17.5223 60.3432 17.9077 59.0765 17.772C58.051 17.6622 57.2492 17.2539 56.6712 16.547C56.1027 15.8324 55.8711 14.9839 55.9763 14.0015C56.0806 13.0277 56.4818 12.2514 57.1801 11.6724C57.8784 11.0935 58.7273 10.8576 59.727 10.9646C60.6749 11.0661 61.4102 11.4848 61.9328 12.2206C62.4649 12.9487 62.6807 13.7824 62.5801 14.7217C62.5626 14.8855 62.5317 15.0521 62.4874 15.2217L57.0714 14.6417ZM59.6135 12.0245C59.0102 11.9599 58.492 12.0788 58.0587 12.381C57.6263 12.6746 57.3322 13.1008 57.1765 13.6594L61.4939 14.1217C61.4646 13.4997 61.2731 13.0085 60.9195 12.6481C60.5659 12.2878 60.1305 12.0799 59.6135 12.0245ZM67.4569 11.7923C68.2152 11.8735 68.7969 12.1799 69.2019 12.7114C69.6079 13.2342 69.7671 13.905 69.6794 14.7236L69.2545 18.692L68.1299 18.5715L68.5479 14.6678C68.6042 14.1422 68.5054 13.7219 68.2515 13.4071C67.9985 13.0837 67.6221 12.8952 67.1222 12.8417C66.5621 12.7817 66.0908 12.9099 65.7083 13.2263C65.3267 13.5341 65.0971 14.0499 65.0196 14.7738L64.6528 18.1992L63.5282 18.0788L64.2203 11.6157L65.3449 11.7361L65.2452 12.6668C65.7804 11.9832 66.5176 11.6918 67.4569 11.7923ZM73.844 19.3534C72.8703 19.2491 72.0948 18.8392 71.5177 18.1237C70.9416 17.3996 70.7051 16.5549 70.8085 15.5898C70.9118 14.6246 71.3213 13.8535 72.0368 13.2764C72.7532 12.6907 73.5983 12.45 74.5721 12.5542C75.2098 12.6225 75.7662 12.839 76.2414 13.2037C76.7176 13.5597 77.0529 14.0097 77.2474 14.5535L76.2457 14.9953C76.1189 14.6331 75.8942 14.3301 75.5716 14.0864C75.2577 13.8436 74.8853 13.6991 74.4544 13.653C73.8081 13.5838 73.2417 13.7454 72.7552 14.1378C72.2772 14.5311 72.0032 15.0553 71.9331 15.7102C71.8639 16.3565 72.0212 16.9225 72.405 17.4081C72.7974 17.8946 73.3168 18.1725 73.9631 18.2417C74.3939 18.2879 74.7923 18.2303 75.1582 18.069C75.5251 17.8991 75.8174 17.6515 76.0353 17.3262L76.9323 17.9844C76.6021 18.4633 76.1619 18.8302 75.6116 19.0851C75.0623 19.3313 74.4731 19.4207 73.844 19.3534ZM83.0966 13.637L84.2988 13.7658L80.9269 20.3472C80.5727 21.0501 80.1254 21.5644 79.5849 21.8901C79.0522 22.2252 78.465 22.3367 77.8233 22.2244L77.9354 21.1774C78.7218 21.3226 79.3505 20.9454 79.8217 20.0458L79.9643 19.8126L77.8357 13.0737L79.0378 13.2024L80.6927 18.5048L83.0966 13.637Z" fill="black"></path><path d="M5.53779 32.1687H11.6128V34.7188H1.86279V32.9187L7.71279 24.7687H2.11279V22.2188H11.3628V24.0187L5.53779 32.1687ZM15.4974 29.6187C15.6974 30.5687 16.1557 31.3021 16.8724 31.8187C17.589 32.3187 18.464 32.5687 19.4974 32.5687C20.9307 32.5687 22.0057 32.0521 22.7224 31.0187L24.9474 32.3187C23.714 34.1354 21.889 35.0438 19.4724 35.0438C17.439 35.0438 15.7974 34.4271 14.5474 33.1937C13.2974 31.9437 12.6724 30.3687 12.6724 28.4688C12.6724 26.6021 13.289 25.0437 14.5224 23.7937C15.7557 22.5271 17.339 21.8937 19.2724 21.8937C21.1057 21.8937 22.6057 22.5354 23.7724 23.8187C24.9557 25.1021 25.5474 26.6604 25.5474 28.4937C25.5474 28.7771 25.514 29.1521 25.4474 29.6187H15.4974ZM15.4724 27.4187H22.8224C22.639 26.4021 22.214 25.6354 21.5474 25.1187C20.8974 24.6021 20.1307 24.3437 19.2474 24.3437C18.2474 24.3437 17.414 24.6187 16.7474 25.1687C16.0807 25.7187 15.6557 26.4687 15.4724 27.4187ZM27.9231 34.7188V16.4687H30.6231V34.7188H27.9231ZM36.3081 19.8437C35.9748 20.1771 35.5748 20.3437 35.1081 20.3437C34.6414 20.3437 34.2331 20.1771 33.8831 19.8437C33.5498 19.4937 33.3831 19.0854 33.3831 18.6187C33.3831 18.1521 33.5498 17.7521 33.8831 17.4187C34.2164 17.0687 34.6248 16.8937 35.1081 16.8937C35.5914 16.8937 35.9998 17.0687 36.3331 17.4187C36.6664 17.7521 36.8331 18.1521 36.8331 18.6187C36.8331 19.0854 36.6581 19.4937 36.3081 19.8437ZM33.7581 34.7188V22.2188H36.4581V34.7188H33.7581ZM45.4931 35.0438C43.6597 35.0438 42.1014 34.4104 40.8181 33.1437C39.5347 31.8771 38.8931 30.3187 38.8931 28.4688C38.8931 26.6187 39.5347 25.0604 40.8181 23.7937C42.1014 22.5271 43.6597 21.8937 45.4931 21.8937C47.3431 21.8937 48.9014 22.5271 50.1681 23.7937C51.4514 25.0604 52.0931 26.6187 52.0931 28.4688C52.0931 30.3187 51.4514 31.8771 50.1681 33.1437C48.9014 34.4104 47.3431 35.0438 45.4931 35.0438ZM42.7181 31.2937C43.4681 32.0437 44.3931 32.4187 45.4931 32.4187C46.5931 32.4187 47.5181 32.0437 48.2681 31.2937C49.0181 30.5437 49.3931 29.6021 49.3931 28.4688C49.3931 27.3354 49.0181 26.3937 48.2681 25.6437C47.5181 24.8937 46.5931 24.5187 45.4931 24.5187C44.3931 24.5187 43.4681 24.8937 42.7181 25.6437C41.9681 26.3937 41.5931 27.3354 41.5931 28.4688C41.5931 29.6021 41.9681 30.5437 42.7181 31.2937ZM56.7153 25.6687C56.7153 26.0854 56.9403 26.4187 57.3903 26.6687C57.857 26.9021 58.4153 27.1104 59.0653 27.2937C59.732 27.4604 60.3987 27.6604 61.0653 27.8937C61.732 28.1271 62.2903 28.5271 62.7403 29.0937C63.207 29.6437 63.4403 30.3437 63.4403 31.1937C63.4403 32.3937 62.9737 33.3354 62.0403 34.0187C61.1237 34.7021 59.9653 35.0438 58.5653 35.0438C57.332 35.0438 56.2737 34.7854 55.3903 34.2687C54.507 33.7521 53.8653 33.0354 53.4653 32.1187L55.7903 30.7687C56.2237 31.9687 57.1487 32.5687 58.5653 32.5687C59.982 32.5687 60.6903 32.1021 60.6903 31.1687C60.6903 30.7687 60.457 30.4437 59.9903 30.1937C59.5403 29.9437 58.982 29.7354 58.3153 29.5687C57.6653 29.3854 57.007 29.1771 56.3403 28.9437C55.6737 28.7104 55.107 28.3271 54.6403 27.7937C54.1903 27.2437 53.9653 26.5521 53.9653 25.7187C53.9653 24.5687 54.3987 23.6437 55.2653 22.9437C56.1487 22.2437 57.2403 21.8937 58.5403 21.8937C59.5737 21.8937 60.4903 22.1271 61.2903 22.5937C62.107 23.0437 62.732 23.6771 63.1653 24.4937L60.8903 25.7687C60.457 24.8187 59.6737 24.3437 58.5403 24.3437C58.0237 24.3437 57.5903 24.4604 57.2403 24.6937C56.8903 24.9104 56.7153 25.2354 56.7153 25.6687Z" fill="black"></path><defs><linearGradient id="paint0_linear_27_529" x1="33.7856" y1="10.3077" x2="92.3302" y2="10.3077" gradientUnits="userSpaceOnUse"><stop stop-color="#6B8DFF"></stop><stop offset="1" stop-color="#B7B3FF"></stop></linearGradient></defs></svg> 