<svg width="24" height="23" viewBox="0 0 24 23" fill="none" xmlns="http://www.w3.org/2000/svg">
<path d="M11.4664 19.7763C11.7611 19.6214 12.2346 19.6192 12.5335 19.7763L18.0164 22.6589C19.1847 23.273 19.9505 22.7145 19.7277 21.4155L18.6806 15.3102C18.6243 14.9821 18.7685 14.5311 19.0103 14.2954L23.4461 9.97156C24.3912 9.05029 24.0967 8.14931 22.7924 7.95979L16.6624 7.06904C16.3329 7.02117 15.9485 6.74469 15.7991 6.44182L13.0576 0.887032C12.4735 -0.296528 11.5256 -0.294826 10.9423 0.887032L8.20087 6.44182C8.05354 6.74035 7.67181 7.02048 7.33758 7.06904L1.2075 7.95979C-0.0986343 8.14959 -0.389929 9.05161 0.55384 9.97156L4.9896 14.2954C5.228 14.5277 5.37645 14.9773 5.31935 15.3102L4.27221 21.4155C4.0491 22.7164 4.81696 23.2722 5.98352 22.6589L11.4664 19.7763Z" fill="#6A8DFF"/>
</svg>
